<svg width="53" height="44" viewBox="0 0 53 44" fill="none" xmlns="http://www.w3.org/2000/svg">
<path d="M26.5 9.16667C30.0704 9.16667 33.3487 10.1815 35.9656 11.8691L43.9977 5.5075C39.3278 2.08991 33.2147 0 26.5 0C16.3249 0 7.50097 4.7665 3.0603 11.7514L11.9918 17.6051C14.1553 12.6855 19.8253 9.16667 26.5 9.16667Z" fill="#FEFEFE"/>
<path d="M52.7706 24.7533C52.9086 23.852 53 22.9326 53 22C53 20.4274 52.7931 18.8958 52.4152 17.4167H26.5V26.5833H40.8237C39.665 29.0836 37.6017 31.1993 34.9756 32.6691L43.9403 38.5446C48.6924 35.0816 51.9444 30.2324 52.7706 24.7533Z" fill="#FEFEFE"/>
<path d="M11.0417 22C11.0417 20.4538 11.3881 18.9779 11.9918 17.6051L3.06031 11.7514C1.11374 14.8134 0 18.297 0 22C0 25.6617 1.09325 29.1066 2.9994 32.1438L11.9422 26.2825C11.3695 24.9414 11.0417 23.5041 11.0417 22Z" fill="#FEFEFE"/>
<path d="M26.5001 34.8333C19.7746 34.8333 14.0681 31.2611 11.9423 26.2825L2.99951 32.1438C7.41845 39.1847 16.2751 44 26.5001 44C33.1865 44 39.2837 41.9379 43.9404 38.5445L34.9757 32.6691C32.5536 34.0246 29.6545 34.8333 26.5001 34.8333Z" fill="#FEFEFE"/>
<path opacity="0.1" d="M26.5 43.5417C18.7008 43.5417 11.6881 40.8701 6.72998 36.6141C11.5835 41.136 18.6305 44 26.5 44C34.2967 44 41.2854 41.1924 46.1279 36.7415C41.1845 40.9284 34.2249 43.5417 26.5 43.5417Z" fill="#FEFEFE"/>
<path opacity="0.1" d="M26.5 26.125V26.5833H40.8237L41.0474 26.125H26.5Z" fill="#FEFEFE"/>
<path d="M52.9877 22.2695C52.9894 22.1793 52.9996 22.0906 52.9996 22C52.9996 21.9743 52.9949 21.9496 52.9947 21.9241C52.9934 22.0394 52.9866 22.1536 52.9877 22.2695Z" fill="#E6E6E6"/>
<path opacity="0.2" d="M26.5 17.4167V17.875H52.5265C52.4916 17.7237 52.4537 17.5668 52.4152 17.4167H26.5Z" fill="#FEFEFE"/>
<path d="M52.4152 17.4167H26.5V26.5833H40.8237C38.5961 31.3896 33.0746 34.8333 26.5 34.8333C17.9626 34.8333 11.0417 29.0877 11.0417 22C11.0417 14.9123 17.9626 9.16667 26.5 9.16667C29.5959 9.16667 32.449 9.95621 34.8663 11.2579C35.2364 11.4575 35.618 11.645 35.9656 11.8691L43.9977 5.5075L43.8164 5.3918C39.169 2.04796 33.1327 0 26.5 0C11.8644 0 0 9.84969 0 22C0 34.1502 11.8644 44 26.5 44C40.0099 44 51.1351 35.6011 52.7705 24.7533C52.9086 23.852 53 22.9326 53 22C53 20.4274 52.7931 18.8958 52.4152 17.4167Z" fill="#FEFEFE"/>
<path opacity="0.1" d="M34.8663 10.7996C32.4491 9.49788 29.5959 8.70833 26.5001 8.70833C17.9627 8.70833 11.0417 14.4539 11.0417 21.5417C11.0417 21.619 11.043 21.6794 11.0446 21.7565C11.1935 14.7758 18.0559 9.16667 26.5001 9.16667C29.5959 9.16667 32.4491 9.95621 34.8663 11.2579C35.2365 11.4575 35.6181 11.645 35.9657 11.8691L43.9978 5.5075L35.9657 11.4108C35.6181 11.1867 35.2365 10.9992 34.8663 10.7996Z" fill="#FEFEFE"/>
<path opacity="0.2" d="M26.5 0.458333C33.0698 0.458333 39.0497 2.47205 43.6793 5.7596L43.9977 5.5075L43.7546 5.33183C39.1074 1.98799 33.1327 0 26.5 0C11.8644 0 0 9.84969 0 22C0 22.0774 0.0129395 22.152 0.0138829 22.2292C0.163495 10.1857 11.9575 0.458333 26.5 0.458333Z" fill="#FEFEFE"/>
</svg>
